<mxfile host="app.diagrams.net" agent="Mozilla/5.0 (Windows NT 10.0; Win64; x64) AppleWebKit/537.36 (KHTML, like Gecko) Chrome/132.0.0.0 Safari/537.36 OPR/117.0.0.0" version="26.2.3">
  <diagram name="1 oldal" id="KTVzlJxMNFbSK0oqx2c2">
    <mxGraphModel dx="1998" dy="825" grid="1" gridSize="10" guides="1" tooltips="1" connect="1" arrows="1" fold="1" page="1" pageScale="1" pageWidth="827" pageHeight="1169" math="0" shadow="0">
      <root>
        <mxCell id="0" />
        <mxCell id="1" parent="0" />
        <mxCell id="NMaUpkywZuw0_Rt0EjpK-5" value="Auto" style="rounded=1;arcSize=10;whiteSpace=wrap;html=1;align=center;" vertex="1" parent="1">
          <mxGeometry x="60" y="190" width="100" height="40" as="geometry" />
        </mxCell>
        <mxCell id="NMaUpkywZuw0_Rt0EjpK-6" value="Tulajdonos" style="rounded=1;arcSize=10;whiteSpace=wrap;html=1;align=center;" vertex="1" parent="1">
          <mxGeometry x="670" y="190" width="100" height="40" as="geometry" />
        </mxCell>
        <mxCell id="NMaUpkywZuw0_Rt0EjpK-7" value="A - T" style="shape=rhombus;perimeter=rhombusPerimeter;whiteSpace=wrap;html=1;align=center;" vertex="1" parent="1">
          <mxGeometry x="390" y="170" width="120" height="60" as="geometry" />
        </mxCell>
        <mxCell id="NMaUpkywZuw0_Rt0EjpK-9" value="Rendszam PK" style="ellipse;whiteSpace=wrap;html=1;align=center;fontStyle=4;" vertex="1" parent="1">
          <mxGeometry x="80" y="300" width="100" height="40" as="geometry" />
        </mxCell>
        <mxCell id="NMaUpkywZuw0_Rt0EjpK-10" value="NN" style="ellipse;whiteSpace=wrap;html=1;align=center;" vertex="1" parent="1">
          <mxGeometry x="180" y="300" width="100" height="40" as="geometry" />
        </mxCell>
        <mxCell id="NMaUpkywZuw0_Rt0EjpK-11" value="Tipus NN" style="ellipse;whiteSpace=wrap;html=1;align=center;" vertex="1" parent="1">
          <mxGeometry x="280" y="300" width="100" height="40" as="geometry" />
        </mxCell>
        <mxCell id="NMaUpkywZuw0_Rt0EjpK-12" value="Szin NN" style="ellipse;whiteSpace=wrap;html=1;align=center;" vertex="1" parent="1">
          <mxGeometry x="380" y="300" width="100" height="40" as="geometry" />
        </mxCell>
        <mxCell id="NMaUpkywZuw0_Rt0EjpK-13" value="Kor NN" style="ellipse;whiteSpace=wrap;html=1;align=center;" vertex="1" parent="1">
          <mxGeometry x="-20" y="300" width="100" height="40" as="geometry" />
        </mxCell>
        <mxCell id="NMaUpkywZuw0_Rt0EjpK-14" value="Ar NN" style="ellipse;whiteSpace=wrap;html=1;align=center;" vertex="1" parent="1">
          <mxGeometry x="-120" y="300" width="100" height="40" as="geometry" />
        </mxCell>
        <mxCell id="NMaUpkywZuw0_Rt0EjpK-15" value="&lt;span style=&quot;border-bottom: 1px dotted&quot;&gt;Tulaj FK&lt;/span&gt;" style="ellipse;whiteSpace=wrap;html=1;align=center;" vertex="1" parent="1">
          <mxGeometry x="-220" y="300" width="100" height="40" as="geometry" />
        </mxCell>
        <mxCell id="NMaUpkywZuw0_Rt0EjpK-16" value="Tkod PK" style="ellipse;whiteSpace=wrap;html=1;align=center;fontStyle=4;" vertex="1" parent="1">
          <mxGeometry x="600" y="280" width="100" height="40" as="geometry" />
        </mxCell>
        <mxCell id="NMaUpkywZuw0_Rt0EjpK-17" value="Nev NN" style="ellipse;whiteSpace=wrap;html=1;align=center;" vertex="1" parent="1">
          <mxGeometry x="700" y="280" width="100" height="40" as="geometry" />
        </mxCell>
        <mxCell id="NMaUpkywZuw0_Rt0EjpK-18" value="Varos NN" style="ellipse;whiteSpace=wrap;html=1;align=center;" vertex="1" parent="1">
          <mxGeometry x="800" y="280" width="100" height="40" as="geometry" />
        </mxCell>
        <mxCell id="NMaUpkywZuw0_Rt0EjpK-19" value="" style="endArrow=none;html=1;rounded=0;exitX=0.5;exitY=0;exitDx=0;exitDy=0;entryX=0.5;entryY=1;entryDx=0;entryDy=0;" edge="1" parent="1" source="NMaUpkywZuw0_Rt0EjpK-15" target="NMaUpkywZuw0_Rt0EjpK-5">
          <mxGeometry relative="1" as="geometry">
            <mxPoint x="300" y="430" as="sourcePoint" />
            <mxPoint x="460" y="430" as="targetPoint" />
          </mxGeometry>
        </mxCell>
        <mxCell id="NMaUpkywZuw0_Rt0EjpK-20" value="" style="endArrow=none;html=1;rounded=0;exitX=0.5;exitY=0;exitDx=0;exitDy=0;entryX=0.5;entryY=1;entryDx=0;entryDy=0;" edge="1" parent="1" source="NMaUpkywZuw0_Rt0EjpK-14" target="NMaUpkywZuw0_Rt0EjpK-5">
          <mxGeometry relative="1" as="geometry">
            <mxPoint x="300" y="430" as="sourcePoint" />
            <mxPoint x="460" y="430" as="targetPoint" />
          </mxGeometry>
        </mxCell>
        <mxCell id="NMaUpkywZuw0_Rt0EjpK-21" value="" style="endArrow=none;html=1;rounded=0;exitX=0.5;exitY=0;exitDx=0;exitDy=0;entryX=0.5;entryY=1;entryDx=0;entryDy=0;" edge="1" parent="1" source="NMaUpkywZuw0_Rt0EjpK-13" target="NMaUpkywZuw0_Rt0EjpK-5">
          <mxGeometry relative="1" as="geometry">
            <mxPoint x="300" y="430" as="sourcePoint" />
            <mxPoint x="460" y="430" as="targetPoint" />
          </mxGeometry>
        </mxCell>
        <mxCell id="NMaUpkywZuw0_Rt0EjpK-22" value="" style="endArrow=none;html=1;rounded=0;exitX=0.5;exitY=0;exitDx=0;exitDy=0;entryX=0.5;entryY=1;entryDx=0;entryDy=0;" edge="1" parent="1" source="NMaUpkywZuw0_Rt0EjpK-9" target="NMaUpkywZuw0_Rt0EjpK-5">
          <mxGeometry relative="1" as="geometry">
            <mxPoint x="300" y="430" as="sourcePoint" />
            <mxPoint x="460" y="430" as="targetPoint" />
          </mxGeometry>
        </mxCell>
        <mxCell id="NMaUpkywZuw0_Rt0EjpK-23" value="" style="endArrow=none;html=1;rounded=0;exitX=0.5;exitY=0;exitDx=0;exitDy=0;entryX=0.5;entryY=1;entryDx=0;entryDy=0;" edge="1" parent="1" source="NMaUpkywZuw0_Rt0EjpK-10" target="NMaUpkywZuw0_Rt0EjpK-5">
          <mxGeometry relative="1" as="geometry">
            <mxPoint x="300" y="430" as="sourcePoint" />
            <mxPoint x="460" y="430" as="targetPoint" />
          </mxGeometry>
        </mxCell>
        <mxCell id="NMaUpkywZuw0_Rt0EjpK-24" value="" style="endArrow=none;html=1;rounded=0;exitX=0.5;exitY=0;exitDx=0;exitDy=0;entryX=0.5;entryY=1;entryDx=0;entryDy=0;" edge="1" parent="1" source="NMaUpkywZuw0_Rt0EjpK-11" target="NMaUpkywZuw0_Rt0EjpK-5">
          <mxGeometry relative="1" as="geometry">
            <mxPoint x="300" y="430" as="sourcePoint" />
            <mxPoint x="460" y="430" as="targetPoint" />
          </mxGeometry>
        </mxCell>
        <mxCell id="NMaUpkywZuw0_Rt0EjpK-25" value="" style="endArrow=none;html=1;rounded=0;exitX=0.5;exitY=0;exitDx=0;exitDy=0;entryX=0.5;entryY=1;entryDx=0;entryDy=0;" edge="1" parent="1" source="NMaUpkywZuw0_Rt0EjpK-12" target="NMaUpkywZuw0_Rt0EjpK-5">
          <mxGeometry relative="1" as="geometry">
            <mxPoint x="300" y="430" as="sourcePoint" />
            <mxPoint x="460" y="430" as="targetPoint" />
          </mxGeometry>
        </mxCell>
        <mxCell id="NMaUpkywZuw0_Rt0EjpK-26" value="" style="endArrow=none;html=1;rounded=0;exitX=0.5;exitY=0;exitDx=0;exitDy=0;entryX=0.5;entryY=1;entryDx=0;entryDy=0;" edge="1" parent="1" source="NMaUpkywZuw0_Rt0EjpK-16" target="NMaUpkywZuw0_Rt0EjpK-6">
          <mxGeometry relative="1" as="geometry">
            <mxPoint x="300" y="430" as="sourcePoint" />
            <mxPoint x="460" y="430" as="targetPoint" />
          </mxGeometry>
        </mxCell>
        <mxCell id="NMaUpkywZuw0_Rt0EjpK-27" value="" style="endArrow=none;html=1;rounded=0;exitX=0.5;exitY=0;exitDx=0;exitDy=0;entryX=0.5;entryY=1;entryDx=0;entryDy=0;" edge="1" parent="1" source="NMaUpkywZuw0_Rt0EjpK-17" target="NMaUpkywZuw0_Rt0EjpK-6">
          <mxGeometry relative="1" as="geometry">
            <mxPoint x="300" y="430" as="sourcePoint" />
            <mxPoint x="460" y="430" as="targetPoint" />
          </mxGeometry>
        </mxCell>
        <mxCell id="NMaUpkywZuw0_Rt0EjpK-28" value="" style="endArrow=none;html=1;rounded=0;exitX=0.44;exitY=0.017;exitDx=0;exitDy=0;exitPerimeter=0;entryX=0.5;entryY=1;entryDx=0;entryDy=0;" edge="1" parent="1" source="NMaUpkywZuw0_Rt0EjpK-18" target="NMaUpkywZuw0_Rt0EjpK-6">
          <mxGeometry relative="1" as="geometry">
            <mxPoint x="300" y="430" as="sourcePoint" />
            <mxPoint x="460" y="430" as="targetPoint" />
          </mxGeometry>
        </mxCell>
        <mxCell id="NMaUpkywZuw0_Rt0EjpK-29" value="" style="endArrow=classic;html=1;rounded=0;exitX=1;exitY=0.5;exitDx=0;exitDy=0;entryX=0;entryY=0.5;entryDx=0;entryDy=0;" edge="1" parent="1" source="NMaUpkywZuw0_Rt0EjpK-7" target="NMaUpkywZuw0_Rt0EjpK-6">
          <mxGeometry width="50" height="50" relative="1" as="geometry">
            <mxPoint x="360" y="460" as="sourcePoint" />
            <mxPoint x="410" y="410" as="targetPoint" />
          </mxGeometry>
        </mxCell>
        <mxCell id="NMaUpkywZuw0_Rt0EjpK-30" value="" style="endArrow=classic;html=1;rounded=0;exitX=0;exitY=0.5;exitDx=0;exitDy=0;entryX=1;entryY=0.5;entryDx=0;entryDy=0;" edge="1" parent="1" source="NMaUpkywZuw0_Rt0EjpK-7" target="NMaUpkywZuw0_Rt0EjpK-5">
          <mxGeometry width="50" height="50" relative="1" as="geometry">
            <mxPoint x="360" y="460" as="sourcePoint" />
            <mxPoint x="410" y="410" as="targetPoint" />
          </mxGeometry>
        </mxCell>
        <mxCell id="NMaUpkywZuw0_Rt0EjpK-31" value="" style="endArrow=classic;html=1;rounded=0;" edge="1" parent="1">
          <mxGeometry width="50" height="50" relative="1" as="geometry">
            <mxPoint x="390" y="200" as="sourcePoint" />
            <mxPoint x="170" y="210" as="targetPoint" />
          </mxGeometry>
        </mxCell>
        <mxCell id="NMaUpkywZuw0_Rt0EjpK-32" value="Auto" style="swimlane;fontStyle=0;childLayout=stackLayout;horizontal=1;startSize=26;horizontalStack=0;resizeParent=1;resizeParentMax=0;resizeLast=0;collapsible=1;marginBottom=0;align=center;fontSize=14;" vertex="1" parent="1">
          <mxGeometry x="40" y="640" width="160" height="236" as="geometry" />
        </mxCell>
        <mxCell id="NMaUpkywZuw0_Rt0EjpK-33" value="&lt;u&gt;Rendszam PK&lt;/u&gt;" style="text;strokeColor=none;fillColor=none;spacingLeft=4;spacingRight=4;overflow=hidden;rotatable=0;points=[[0,0.5],[1,0.5]];portConstraint=eastwest;fontSize=12;whiteSpace=wrap;html=1;" vertex="1" parent="NMaUpkywZuw0_Rt0EjpK-32">
          <mxGeometry y="26" width="160" height="30" as="geometry" />
        </mxCell>
        <mxCell id="NMaUpkywZuw0_Rt0EjpK-34" value="Tulaj FK" style="text;strokeColor=none;fillColor=none;spacingLeft=4;spacingRight=4;overflow=hidden;rotatable=0;points=[[0,0.5],[1,0.5]];portConstraint=eastwest;fontSize=12;whiteSpace=wrap;html=1;" vertex="1" parent="NMaUpkywZuw0_Rt0EjpK-32">
          <mxGeometry y="56" width="160" height="30" as="geometry" />
        </mxCell>
        <mxCell id="NMaUpkywZuw0_Rt0EjpK-35" value="Ar NN" style="text;strokeColor=none;fillColor=none;spacingLeft=4;spacingRight=4;overflow=hidden;rotatable=0;points=[[0,0.5],[1,0.5]];portConstraint=eastwest;fontSize=12;whiteSpace=wrap;html=1;" vertex="1" parent="NMaUpkywZuw0_Rt0EjpK-32">
          <mxGeometry y="86" width="160" height="30" as="geometry" />
        </mxCell>
        <mxCell id="NMaUpkywZuw0_Rt0EjpK-40" value="Kor NN" style="text;strokeColor=none;fillColor=none;spacingLeft=4;spacingRight=4;overflow=hidden;rotatable=0;points=[[0,0.5],[1,0.5]];portConstraint=eastwest;fontSize=12;whiteSpace=wrap;html=1;" vertex="1" parent="NMaUpkywZuw0_Rt0EjpK-32">
          <mxGeometry y="116" width="160" height="30" as="geometry" />
        </mxCell>
        <mxCell id="NMaUpkywZuw0_Rt0EjpK-41" value="NN" style="text;strokeColor=none;fillColor=none;spacingLeft=4;spacingRight=4;overflow=hidden;rotatable=0;points=[[0,0.5],[1,0.5]];portConstraint=eastwest;fontSize=12;whiteSpace=wrap;html=1;" vertex="1" parent="NMaUpkywZuw0_Rt0EjpK-32">
          <mxGeometry y="146" width="160" height="30" as="geometry" />
        </mxCell>
        <mxCell id="NMaUpkywZuw0_Rt0EjpK-43" value="Szin NN" style="text;strokeColor=none;fillColor=none;spacingLeft=4;spacingRight=4;overflow=hidden;rotatable=0;points=[[0,0.5],[1,0.5]];portConstraint=eastwest;fontSize=12;whiteSpace=wrap;html=1;" vertex="1" parent="NMaUpkywZuw0_Rt0EjpK-32">
          <mxGeometry y="176" width="160" height="30" as="geometry" />
        </mxCell>
        <mxCell id="NMaUpkywZuw0_Rt0EjpK-42" value="Tipus NN" style="text;strokeColor=none;fillColor=none;spacingLeft=4;spacingRight=4;overflow=hidden;rotatable=0;points=[[0,0.5],[1,0.5]];portConstraint=eastwest;fontSize=12;whiteSpace=wrap;html=1;" vertex="1" parent="NMaUpkywZuw0_Rt0EjpK-32">
          <mxGeometry y="206" width="160" height="30" as="geometry" />
        </mxCell>
        <mxCell id="NMaUpkywZuw0_Rt0EjpK-36" value="Tulajdonos" style="swimlane;fontStyle=0;childLayout=stackLayout;horizontal=1;startSize=26;horizontalStack=0;resizeParent=1;resizeParentMax=0;resizeLast=0;collapsible=1;marginBottom=0;align=center;fontSize=14;" vertex="1" parent="1">
          <mxGeometry x="500" y="640" width="160" height="116" as="geometry" />
        </mxCell>
        <mxCell id="NMaUpkywZuw0_Rt0EjpK-37" value="&lt;u&gt;Tkod PK&lt;/u&gt;" style="text;strokeColor=none;fillColor=none;spacingLeft=4;spacingRight=4;overflow=hidden;rotatable=0;points=[[0,0.5],[1,0.5]];portConstraint=eastwest;fontSize=12;whiteSpace=wrap;html=1;" vertex="1" parent="NMaUpkywZuw0_Rt0EjpK-36">
          <mxGeometry y="26" width="160" height="30" as="geometry" />
        </mxCell>
        <mxCell id="NMaUpkywZuw0_Rt0EjpK-38" value="Nev NN" style="text;strokeColor=none;fillColor=none;spacingLeft=4;spacingRight=4;overflow=hidden;rotatable=0;points=[[0,0.5],[1,0.5]];portConstraint=eastwest;fontSize=12;whiteSpace=wrap;html=1;" vertex="1" parent="NMaUpkywZuw0_Rt0EjpK-36">
          <mxGeometry y="56" width="160" height="30" as="geometry" />
        </mxCell>
        <mxCell id="NMaUpkywZuw0_Rt0EjpK-39" value="Varos NN" style="text;strokeColor=none;fillColor=none;spacingLeft=4;spacingRight=4;overflow=hidden;rotatable=0;points=[[0,0.5],[1,0.5]];portConstraint=eastwest;fontSize=12;whiteSpace=wrap;html=1;" vertex="1" parent="NMaUpkywZuw0_Rt0EjpK-36">
          <mxGeometry y="86" width="160" height="30" as="geometry" />
        </mxCell>
      </root>
    </mxGraphModel>
  </diagram>
</mxfile>
